<mxfile host="app.diagrams.net" modified="2024-02-01T06:19:01.511Z" agent="Mozilla/5.0 (Windows NT 10.0; Win64; x64) AppleWebKit/537.36 (KHTML, like Gecko) Chrome/121.0.0.0 Safari/537.36 Edg/121.0.0.0" version="23.0.0" etag="d6s8NyL23al2zKl5xQ5e" type="github">
  <diagram name="Page-1" id="ZXB3QCm_0FTuUbAyIV1E">
    <mxGraphModel>
      <root>
        <mxCell id="0" />
        <mxCell id="1" parent="0" />
      </root>
    </mxGraphModel>
  </diagram>
</mxfile>
